<?xml version="1.0" encoding="UTF-8" standalone="no"?>
<svg
   version="1.1"
   width="1000"
   height="1000"
   id="svg64"
   sodipodi:docname="feevale_bird.svg"
   inkscape:version="1.1.2 (0a00cf5339, 2022-02-04)"
   inkscape:export-filename="/home/p/Documents/feevale_logo_svg/feevale_bird.png"
   inkscape:export-xdpi="176.86"
   inkscape:export-ydpi="176.86"
   xmlns:inkscape="http://www.inkscape.org/namespaces/inkscape"
   xmlns:sodipodi="http://sodipodi.sourceforge.net/DTD/sodipodi-0.dtd"
   xmlns:xlink="http://www.w3.org/1999/xlink"
   xmlns="http://www.w3.org/2000/svg"
   xmlns:svg="http://www.w3.org/2000/svg"
   xmlns:rdf="http://www.w3.org/1999/02/22-rdf-syntax-ns#"
   xmlns:cc="http://creativecommons.org/ns#"
   xmlns:dc="http://purl.org/dc/elements/1.1/">
  <title
     id="title44">Feevale Bird (a.k.a. Feebird)</title>
  <defs
     id="defs68">
    <color-profile
       name="sRGB"
       xlink:href="file:///app/share/color/icc/colord/sRGB.icc"
       id="color-profile872" />
    <defs
       id="defs16">
      <linearGradient
         id="grad1">
        <stop
           offset="0.0000%"
           stop-color="#00842c"
           stop-opacity="1.0000"
           id="stop2" />
        <stop
           offset="13.0000%"
           stop-color="#00842c"
           stop-opacity="1.0000"
           id="stop4" />
        <stop
           offset="48.0000%"
           stop-color="#52a222"
           stop-opacity="1.0000"
           id="stop6" />
        <stop
           offset="74.0000%"
           stop-color="#a3c400"
           stop-opacity="1.0000"
           id="stop8" />
        <stop
           offset="99.0000%"
           stop-color="#eadf00"
           stop-opacity="1.0000"
           id="stop10" />
        <stop
           offset="100.0000%"
           stop-color="#eadf00"
           stop-opacity="1.0000"
           id="stop12" />
      </linearGradient>
      <linearGradient
         xlink:href="#grad1"
         id="grad2"
         x1="324.27328"
         y1="262.01294"
         x2="324.27328"
         y2="414.33261"
         gradientTransform="matrix(2.3531949,-1.3138881,1.6581161,2.9697131,-1241.3066,87.40523)"
         gradientUnits="userSpaceOnUse" />
    </defs>
    <defs
       id="defs28">
      <linearGradient
         id="grad3">
        <stop
           offset="0.0000%"
           stop-color="#00842c"
           stop-opacity="1.0000"
           id="stop20" />
        <stop
           offset="35.0000%"
           stop-color="#007126"
           stop-opacity="1.0000"
           id="stop22" />
        <stop
           offset="100.0000%"
           stop-color="#005d1f"
           stop-opacity="1.0000"
           id="stop24" />
      </linearGradient>
      <linearGradient
         xlink:href="#grad3"
         id="grad4"
         x1="215.83235"
         y1="173.63391"
         x2="215.83235"
         y2="362.17776"
         gradientTransform="matrix(1.9301986,1.351214,-2.2312087,3.1872641,303.00664,-803.91522)"
         gradientUnits="userSpaceOnUse" />
    </defs>
    <defs
       id="defs39">
      <linearGradient
         id="grad5"
         gradientTransform="matrix(0.67963249,0.09660761,-0.13000853,0.9146074,-125.60248,-156.14468)"
         x1="349.33212"
         y1="258.38406"
         x2="492.13754"
         y2="258.38406"
         gradientUnits="userSpaceOnUse">
        <stop
           offset="0.0000%"
           stop-color="#73b61c"
           stop-opacity="1.0000"
           id="stop32" />
        <stop
           offset="45.0000%"
           stop-color="#b6cb00"
           stop-opacity="1.0000"
           id="stop34" />
        <stop
           offset="100.0000%"
           stop-color="#eadf00"
           stop-opacity="1.0000"
           id="stop36" />
      </linearGradient>
    </defs>
    <defs
       id="defs55">
      <linearGradient
         id="grad6">
        <stop
           offset="0.0000%"
           stop-color="#f8a600"
           stop-opacity="1.0000"
           id="stop43" />
        <stop
           offset="0.0000%"
           stop-color="#f8a600"
           stop-opacity="1.0000"
           id="stop45" />
        <stop
           offset="15.0000%"
           stop-color="#fcb900"
           stop-opacity="1.0000"
           id="stop47" />
        <stop
           offset="53.0000%"
           stop-color="#ffcb00"
           stop-opacity="1.0000"
           id="stop49" />
        <stop
           offset="100.0000%"
           stop-color="#ffdc00"
           stop-opacity="1.0000"
           id="stop51" />
      </linearGradient>
      <linearGradient
         xlink:href="#grad6"
         id="grad7"
         x1="106.70987"
         y1="309.28659"
         x2="106.70987"
         y2="469.0701"
         gradientTransform="matrix(3.9530755,2.7673063,-1.0894494,1.55627,303.00664,-803.91522)"
         gradientUnits="userSpaceOnUse" />
    </defs>
    <linearGradient
       id="linearGradient1277"
       gradientTransform="matrix(0.67963249,0.09660761,-0.13000853,0.9146074,-125.60248,-156.14468)"
       x1="349.33212"
       y1="258.38406"
       x2="492.13754"
       y2="258.38406"
       gradientUnits="userSpaceOnUse">
      <stop
         offset="0.0000%"
         stop-color="#73b61c"
         stop-opacity="1.0000"
         id="stop32-4" />
      <stop
         offset="45.0000%"
         stop-color="#b6cb00"
         stop-opacity="1.0000"
         id="stop34-3" />
      <stop
         offset="100.0000%"
         stop-color="#eadf00"
         stop-opacity="1.0000"
         id="stop36-0" />
    </linearGradient>
    <linearGradient
       inkscape:collect="always"
       xlink:href="#grad5"
       id="linearGradient1281"
       gradientUnits="userSpaceOnUse"
       gradientTransform="matrix(-1.4149127,1.5139486,-1.6818484,-2.544795,1471.4117,843.57647)"
       x1="447.17453"
       y1="328.84177"
       x2="456.73132"
       y2="233.69774" />
    <linearGradient
       inkscape:collect="always"
       xlink:href="#grad5"
       id="linearGradient5442"
       gradientUnits="userSpaceOnUse"
       gradientTransform="matrix(-1.4149127,1.5139486,-1.6818484,-2.544795,1444.4894,804.8097)"
       x1="488.38101"
       y1="286.74298"
       x2="378.79391"
       y2="242.07196" />
    <linearGradient
       inkscape:collect="always"
       xlink:href="#grad5"
       id="linearGradient5941"
       gradientUnits="userSpaceOnUse"
       gradientTransform="matrix(2.5839667,0.36730269,-0.49429319,3.4773426,-462.80355,-650.06694)"
       x1="349.33212"
       y1="258.38406"
       x2="492.13754"
       y2="258.38406" />
  </defs>
  <sodipodi:namedview
     id="namedview66"
     pagecolor="#ffffff"
     bordercolor="#666666"
     borderopacity="1.0"
     inkscape:pageshadow="2"
     inkscape:pageopacity="0.0"
     inkscape:pagecheckerboard="true"
     showgrid="false"
     inkscape:zoom="0.72132785"
     inkscape:cx="471.35294"
     inkscape:cy="564.23719"
     inkscape:window-width="1920"
     inkscape:window-height="1011"
     inkscape:window-x="0"
     inkscape:window-y="0"
     inkscape:window-maximized="1"
     inkscape:current-layer="layer5"
     units="px"
     showborder="true"
     inkscape:showpageshadow="false"
     fit-margin-top="0"
     fit-margin-left="0"
     fit-margin-right="0"
     fit-margin-bottom="0"
     width="1000px" />
  <metadata
     id="metadata40">
    <rdf:RDF>
      <cc:License
         rdf:about="http://creativecommons.org/publicdomain/zero/1.0/">
        <cc:permits
           rdf:resource="http://creativecommons.org/ns#Reproduction" />
        <cc:permits
           rdf:resource="http://creativecommons.org/ns#Distribution" />
        <cc:permits
           rdf:resource="http://creativecommons.org/ns#DerivativeWorks" />
      </cc:License>
      <cc:Work
         rdf:about="">
        <cc:license
           rdf:resource="http://creativecommons.org/publicdomain/zero/1.0/" />
        <dc:title>Feevale Bird (a.k.a. Feebird)</dc:title>
        <dc:creator>
          <cc:Agent>
            <dc:title>Ricardo Biehl Pasquali</dc:title>
          </cc:Agent>
        </dc:creator>
        <dc:contributor>
          <cc:Agent>
            <dc:title>Ricardo Biehl Pasquali</dc:title>
          </cc:Agent>
        </dc:contributor>
        <dc:date>2022-04-18</dc:date>
        <dc:description>An artwork depicting a bird. The shapes and colors are the same as in the logo of the Feevale University, except for the feet.</dc:description>
        <dc:source>Feevale University's official logo</dc:source>
      </cc:Work>
    </rdf:RDF>
  </metadata>
  <g
     inkscape:groupmode="layer"
     id="layer5"
     inkscape:label="feebird">
    <g
       inkscape:groupmode="layer"
       id="layer4"
       inkscape:label="behind"
       style="display:inline">
      <path
         d="m 331.88906,693.99199 c -0.40948,37.3133 9.13151,126.41122 0.55908,162.81854 -10.35354,43.9718 145.36226,79.9531 145.30759,49.44737 -0.0342,-17.19195 -60.24423,-2.97804 -60.76046,-21.815 -0.46316,-16.89763 67.05191,2.08985 66.2101,-20.00577 -0.68173,-17.89296 -63.44707,-0.34256 -65.57764,-12.96465 -2.64714,-15.68221 76.94096,-7.37616 61.56219,-29.96658 -8.4506,-12.41335 -89.99802,11.01088 -89.99802,11.01088 -9.51379,-76.91918 -11.81709,-115.82986 -3.94127,-171.7804 z"
         style="display:inline;fill:url(#linearGradient5442);stroke-width:2.47929"
         id="path41-7-8"
         sodipodi:nodetypes="cssssssccc" />
    </g>
    <g
       inkscape:groupmode="layer"
       id="layer3"
       inkscape:label="bottom"
       style="display:inline">
      <path
         d="m 25.089343,400.99684 -0.06288,0.0342 c -0.977519,100.01168 25.113347,206.63236 80.842107,306.44357 36.55511,65.47073 83.17726,121.10532 135.79699,165.85809 v 0 c 0.0623,0.0228 0.096,0.0487 0.096,0.0487 0.0373,-0.0639 0.0373,-0.0639 0.0114,-0.10873 v 0 c -0.01,-0.019 -0.01,-0.019 -0.0652,0.0114 v 0 C 118.18798,554.5789 287.58372,298.81419 322.28038,254.1374 v 0 c 0.097,-0.11109 0.2585,-0.32754 0.34245,-0.47283 v 0 c 0.48572,-0.58023 -6.54713,5.19483 -22.69787,16.0545 v 0 c -20.94609,14.09167 -57.2262,36.7435 -112.31782,65.19262 v 0 C 143.18548,357.86627 85.356796,383.22991 25.089394,400.99684 Z"
         style="display:inline;fill:url(#grad2);stroke-width:3.02769"
         id="path18" />
      <path
         d="m 241.56039,873.26995 c 0.0633,0.008 0.10516,0.0624 0.10516,0.0624 C 534.76061,720.31351 663.70541,478.92876 681.14593,429.18643 v 0 C 627.67985,443.31434 335.40719,538.40068 241.56039,873.26995 Z"
         style="display:inline;fill:url(#linearGradient5941);stroke-width:3.02769"
         id="path41"
         sodipodi:nodetypes="ccssc" />
      <path
         d="m 358.81139,732.75876 c -0.40949,37.31331 9.13149,126.41122 0.55907,162.81854 -10.35355,43.9718 145.36225,79.95311 145.30758,49.44737 -0.0342,-17.19195 -60.24423,-2.97803 -60.76046,-21.815 -0.46317,-16.89763 67.0519,2.08985 66.2101,-20.00577 -0.68174,-17.89296 -63.44707,-0.34256 -65.57764,-12.96465 -2.64715,-15.68221 76.94096,-7.37616 61.56219,-29.96657 -8.4506,-12.41336 -89.99804,11.01087 -89.99804,11.01087 -9.5138,-76.91918 -11.81709,-115.82985 -3.94127,-171.7804 z"
         style="fill:url(#linearGradient1281);stroke-width:2.47929"
         id="path41-7"
         sodipodi:nodetypes="cssssssccc" />
    </g>
    <g
       inkscape:groupmode="layer"
       id="layer2"
       inkscape:label="top"
       style="display:inline">
      <path
         d="M 289.25164,104.46475 C 256.47079,160.54632 192.41452,296.8375 180.55051,449.41253 v 0 c -9.24236,119.91964 -1.38823,262.31513 61.2225,423.85989 17.36402,-66.87432 47.12991,-133.08309 90.11605,-194.48845 v 0 C 397.46482,585.10946 482.0696,515.16419 572.50483,472.48329 v 0 c -16.48154,-18.19202 -33.13862,-37.28421 -49.73077,-57.17764 v 0 C 380.91404,244.85334 297.16103,80.701442 335.66912,48.604761 v 0 c 1.17657,-0.95479 2.43625,-1.74533 3.71624,-2.431839 v 0 c -10.19272,2.962819 -29.74231,23.398741 -50.13372,58.291828 z"
         style="display:inline;fill:url(#grad4);stroke-width:3.02769"
         id="path30" />
      <path
         d="m 369.10215,44.509236 c -6.60251,-0.759861 -19.35047,-2.117827 -29.71679,1.663686 v 0 c 0,0 -0.0863,-0.0035 -0.11494,0.03764 v 0 c 0.0194,-0.02738 0.053,-0.01749 0.0827,-0.01825 v 0 c -1.32898,0.683631 -2.5401,1.495599 -3.68397,2.412666 v 0 C 297.16102,80.701659 380.91404,244.85355 522.77406,415.30588 v 0 c 16.59215,19.89342 33.24923,38.98561 49.73077,57.17764 v 0 c 136.04402,-64.18208 285.13721,-66.53521 402.49516,6.00447 v 0 C 954.57703,440.94436 873.26596,312.71532 713.13285,200.4049 v 0 c -0.3456,-0.24189 -0.69227,-0.48722 -1.03779,-0.72909 C 623.91848,137.94856 490.45778,60.982115 369.10215,44.509236 Z"
         style="display:inline;fill:url(#grad7);stroke-width:3.02769"
         id="path57" />
    </g>
    <g
       inkscape:groupmode="layer"
       id="layer1"
       inkscape:label="overlay"
       style="display:inline">
      <circle
         style="display:inline;fill:#000000;stroke:#ffffff;stroke-width:28.7396"
         id="path1148"
         cx="504.61874"
         cy="177.30539"
         r="47.47937" />
    </g>
  </g>
</svg>
